<?xml version="1.0" encoding="utf-8"?>
<!-- Generator: Adobe Illustrator 16.0.0, SVG Export Plug-In . SVG Version: 6.00 Build 0)  -->
<!DOCTYPE svg PUBLIC "-//W3C//DTD SVG 1.0//EN" "http://www.w3.org/TR/2001/REC-SVG-20010904/DTD/svg10.dtd">
<svg version="1.0" id="Layer_1" xmlns="http://www.w3.org/2000/svg" xmlns:xlink="http://www.w3.org/1999/xlink" x="0px" y="0px"
	 width="800px" height="800px" viewBox="0 0 800 800" enable-background="new 0 0 800 800" xml:space="preserve">
<g>
	<rect x="21.831" y="237.656" fill="#0C2577" width="756.338" height="324.688"/>
	<path fill="#FFFFFF" d="M157.58,507.453h-2.491v3.467c4.98-0.127,9.948-0.264,14.916-0.264c4.97,0,9.793,0.264,14.622,0.264v-3.467
		h-2.483c-3.868,0-6.896,0-6.896-4.419v-39.563c4.551-2.959,11.593-6.423,16.007-6.423c7.864,0,12.703,3.736,12.703,11.361v34.624
		c0,4.419-2.756,4.419-6.629,4.419h-2.483v3.467c4.965-0.127,9.94-0.264,14.902-0.264c4.971,0,9.803,0.264,14.638,0.264v-3.467
		H221.9c-3.873,0-6.899,0-6.899-4.419v-34.482c0-10.438-4.151-18.729-15.883-18.729c-9.25,0-16.003,4.547-23.871,10.036v-8.68
		c0-1.075-0.421-1.356-0.828-1.356c-6.631,2.823-12.278,4.547-18.228,6.432v2.525c6.497,2.566,8.013,3.881,8.013,8.828v35.426
		C164.204,507.453,161.438,507.453,157.58,507.453"/>
	<path fill-rule="evenodd" clip-rule="evenodd" fill="#FFFFFF" d="M249.262,510.656c4.968,0,9.797,0.264,14.492,0.264v-3.467h-2.35
		c-3.857,0-6.902,0-6.902-4.419V451.7c0-1.066-0.272-1.877-0.956-1.877c-0.688,0-1.521,0.138-2.492,0.674
		c-0.543,0.401-8.282,2.943-14.766,4.812v2.137c5.102,2.674,7.175,3.477,7.175,9.354v36.235c0,4.419-2.751,4.419-6.62,4.419h-2.617
		v3.467C239.323,510.793,244.287,510.656,249.262,510.656 M251.185,416.134c-3.45,0-6.769,3.083-6.769,6.42
		c0,3.476,3.182,6.702,6.769,6.702c3.725,0,6.77-3.103,6.77-6.702C257.954,418.944,254.774,416.134,251.185,416.134"/>
	<path fill="#FFFFFF" d="M299.291,512.922l19.888-47.983c2.484-6.021,4.545-9.634,11.028-9.634v-3.464
		c-4.272,0-8.409,0.272-12.549,0.272c-3.312,0-6.634-0.141-9.938-0.272v3.464c5.799,0.541,7.449,0.813,7.311,3.612
		c-0.136,3.083-1.238,6.551-2.76,10.296l-11.461,27.547l-9.66-25.414c-2.346-6.143-4.407-10.28-4.407-12.429
		c0-3.207,1.653-3.612,7.861-3.612v-3.464c-4.833,0-9.52,0.272-14.345,0.272c-4.559,0-9.248-0.141-13.818-0.272v3.464
		c5.248,0,6.634,0.14,10.633,10.3l18.77,47.317H299.291z"/>
	<path fill-rule="evenodd" clip-rule="evenodd" fill="#FFFFFF" d="M384.089,473.229c0.153-0.802,0.153-1.62,0.153-2.413
		c-0.153-14.181-12.151-20.993-23.341-20.993c-9.652,0-27.88,7.771-27.88,33.972c0,8.551,4.428,29.127,26.372,29.127
		c11.316,0,19.175-6.937,25.539-15.104l-1.94-1.859c-5.104,4.935-11.045,8.953-18.629,8.953c-11.054,0-19.467-10.421-20.297-23.143
		c-0.271-4.534-0.271-6.535,0-7.746h38.79L384.089,473.229z M360.351,454.105c7.731,0,12.012,5.481,12.012,12.305
		c0,1.596-0.415,3.34-3.855,3.34h-24.02C346.138,460.119,351.937,454.105,360.351,454.105"/>
	<path fill="#FFFFFF" d="M409.598,510.656c5.934,0,11.739,0.137,19.316,0.264v-3.467h-7.717c-3.865,0-6.628,0-6.628-4.419v-31.425
		c0-8.014,7.73-11.097,10.075-11.097c4.831,0,4.831,3.223,9.102,3.223c3.873,0,6.498-3.223,6.498-6.831
		c0-4.791-4.418-7.081-7.866-7.081c-8.419,0-14.221,8.557-17.669,13.772h-0.275V451.58c0-1.355-0.413-1.757-1.243-1.757
		c-1.243,0-6.769,3.484-16.831,7.622v2.005c2.068,1.063,7.169,1.88,7.169,6.018v37.566c0,4.419-2.755,4.419-6.624,4.419h-3.724
		v3.467C398.144,510.793,403.944,510.656,409.598,510.656"/>
	<path fill="#FFFFFF" d="M450.18,508.379c4.844,2.678,11.33,4.543,16.843,4.543c16.438,0,23.742-9.354,23.742-18.162
		c0-21.001-32.021-16.182-32.021-31.825c0-5.758,5.244-8.829,10.777-8.829c8.828,0,13.655,4.819,15.035,13.231h3.175l-0.971-13.628
		c-5.376-2.667-11.306-3.886-15.729-3.886c-15.19,0-21.396,9.627-21.396,17.128c0,21.514,30.085,16.442,30.085,32.21
		c0,4.68-3.022,9.49-11.186,9.49c-10.067,0-15.581-7.493-17.376-16.306L448.681,493L450.18,508.379z"/>
	<path fill-rule="evenodd" clip-rule="evenodd" fill="#FFFFFF" d="M517.965,510.656c4.959,0,9.802,0.264,14.5,0.264v-3.467h-2.345
		c-3.873,0-6.916,0-6.916-4.419V451.7c0-1.066-0.28-1.877-0.958-1.877c-0.693,0-1.528,0.149-2.49,0.674
		c-0.545,0.401-8.274,2.943-14.766,4.808v2.141c5.104,2.674,7.173,3.477,7.173,9.37v36.219c0,4.419-2.755,4.419-6.628,4.419h-2.614
		v3.467C508.025,510.793,513.001,510.656,517.965,510.656 M532.201,406.336c-3.448,0-6.764,3.083-6.764,6.423
		c0,3.468,3.184,6.69,6.764,6.69c3.729,0,6.752-3.087,6.752-6.69C538.953,409.153,535.785,406.336,532.201,406.336"/>
	<path fill="#FFFFFF" d="M582.269,459.494v-7.213h-20.571v-13.627h-1.648c-7.044,10.833-11.326,13.363-18.507,18.707v2.133h9.121
		v40.914c0,7.895,4.282,12.43,13.111,12.43c7.461,0,13.53-4.27,18.357-9.078l-2.068-2.017c-3.175,2.687-5.941,3.886-9.667,3.886
		c-3.728,0-8.699-2.405-8.699-11.223v-34.912H582.269z"/>
	<path fill-rule="evenodd" clip-rule="evenodd" fill="#FFFFFF" d="M642.154,474.28c0.137-0.806,0.137-1.596,0.137-2.397
		c-0.137-14.168-12.151-20.988-23.33-20.988c-9.658,0-27.88,7.766-27.88,33.95c0,8.556,4.426,29.151,26.373,29.151
		c11.318,0,19.173-6.96,25.519-15.1l-1.921-1.88c-5.111,4.956-11.033,8.956-18.631,8.956c-11.033,0-19.473-10.431-20.298-23.133
		c-0.266-4.526-0.266-6.551,0-7.749h38.794L642.154,474.28z M618.412,455.173c7.738,0,12.02,5.483,12.02,12.3
		c0,1.604-0.413,3.344-3.873,3.344h-24.007C604.207,461.187,610.005,455.173,618.412,455.173"/>
	<path fill="#FFFFFF" d="M655.129,509.017c4.831,2.689,11.33,4.555,16.844,4.555c16.413,0,23.737-9.361,23.737-18.187
		c0-20.996-32.026-16.169-32.026-31.821c0-5.741,5.241-8.816,10.762-8.816c8.849,0,13.659,4.807,15.047,13.23h3.187l-0.977-13.631
		c-5.382-2.679-11.315-3.873-15.737-3.873c-15.184,0-21.397,9.626-21.397,17.111c0,21.521,30.094,16.438,30.094,32.219
		c0,4.67-3.026,9.498-11.171,9.498c-10.078,0-15.611-7.498-17.403-16.322l-2.478,0.67L655.129,509.017z"/>
	<path fill-rule="evenodd" clip-rule="evenodd" fill="#FFFFFF" d="M721.587,511.078c4.955,0,9.799,0.271,14.489,0.271v-3.475h-2.354
		c-3.861,0-6.888,0-6.888-4.419v-51.331c0-1.063-0.293-1.868-0.971-1.868c-0.694,0-1.516,0.137-2.49,0.67
		c-0.545,0.396-8.274,2.938-14.771,4.799v2.148c5.113,2.687,7.182,3.48,7.182,9.354v36.228c0,4.419-2.763,4.419-6.615,4.419h-2.63
		v3.475C711.651,511.213,716.614,511.078,721.587,511.078 M729.669,362.456c-3.46,0-6.768,3.087-6.768,6.421
		c0,3.475,3.179,6.68,6.768,6.68c3.72,0,6.751-3.075,6.751-6.68C736.42,365.261,733.254,362.456,729.669,362.456"/>
	<path fill="#FFFFFF" d="M70.08,363.637c-3.438,0-6.753,3.071-6.753,6.413c0,3.49,3.175,6.688,6.753,6.688
		c3.736,0,6.768-3.071,6.768-6.688C76.848,366.439,73.67,363.637,70.08,363.637"/>
	<path fill="#FFFFFF" d="M128.183,385.209c-3.458,0-6.774,3.071-6.774,6.409c0,3.491,3.176,6.692,6.774,6.692
		c3.716,0,6.745-3.073,6.745-6.692C134.928,388.014,131.759,385.209,128.183,385.209"/>
	<path fill-rule="evenodd" clip-rule="evenodd" fill="#FFFFFF" d="M135.647,419.521c-5.802,0-11.59-0.128-17.399-0.272v3.48
		c12.285,0.389,13.111-1.645,13.111,20.283v38.091c0,9.238-2.201,26.35-25.116,26.35c-21.533,0-26.914-15.38-26.914-31.292v-43.813
		c0-9.346,5.244-9.481,12.571-9.618v-3.48c-6.912,0.145-13.254,0.272-19.608,0.272c-6.215,0-12.56-0.128-19.049-0.272v3.48
		c7.317,0.137,12.569,0.272,12.569,9.618v47.161c0.404,22.72,14.068,33.413,36.845,33.413c24.292,0,36.027-13.632,36.027-31.818
		v-38.492c0-16.313-0.136-19.882,10.901-19.882v-3.48C144.896,419.249,140.332,419.521,135.647,419.521"/>
	<path fill="#FFFFFF" d="M196.857,379.778c16.149,0,32.157-9.67,32.157-26.896c0-30.482-42.141-23.732-42.141-48.371
		c0-9.683,6.023-16.983,16.418-16.983c9.851,0,16.147,5.438,17.65,14.712h3.149l-2.191-16.969
		c-5.476-0.786-11.088-1.969-16.685-1.969c-16.706,0-29.298,8.866-29.298,25.97c0,31.276,40.507,24.002,40.507,48.645
		c0,10.466-8.201,17.631-18.736,17.631c-11.366,0-19.029-9.669-21.354-19.623h-3.144l2.728,19.356
		C182.354,378.192,189.748,379.778,196.857,379.778"/>
	<path fill-rule="evenodd" clip-rule="evenodd" fill="#FFFFFF" d="M261.875,373.559c-5.347,0-9.717-4.375-9.717-9.543
		c0-9.94,17.784-12.991,24.766-15.632v17.489C272.413,369.701,268.294,373.559,261.875,373.559 M292.801,372.618
		c-3.018,0-4.928-2.105-4.928-7.548v-36.712c0-7.294-10.545-11.138-16.698-11.138c-5.2,0-7.521,1.867-12.313,4.245
		c-9.582,4.765-15.736,8.081-15.736,15.108c0,0.931,0.405,2.643,2.462,2.643c3.276,0,7.659-1.853,7.659-5.553
		c0.269-5.974,4.376-9.29,10.406-9.29c8.76,0,13.271,3.984,13.271,11.399v8.755c-29.566,9.813-35.167,11.794-35.712,22.4
		c0,7.028,6.02,12.85,14.77,12.85c8.498,0,14.647-4.102,21.083-9.805c0.264,4.781,2.862,9.805,8.481,9.805
		c5.47,0,9.712-3.703,13.541-7.16l-1.221-2.235C296.621,371.832,294.579,372.618,292.801,372.618"/>
	<path fill-rule="evenodd" clip-rule="evenodd" fill="#FFFFFF" d="M323.75,276.536c-0.413,0-1.506,0.651-3.007,1.449
		c-2.877,1.592-8.624,3.989-14.103,5.691v2.129c5.202,1.455,7.248,1.722,7.248,10.34v57.001c0,8.094-0.678,15.771-1.906,23.603
		l2.873,1.443l4.105-3.049c3.552,1.457,8.891,4.635,19.018,4.635c19.573,0,32.706-17.353,32.706-34.721
		c0-14.44-9.57-27.829-25.455-27.829c-7.521,0-14.913,5.035-20.383,9.544v-48.382C324.847,277.323,324.576,276.536,323.75,276.536
		 M337.853,324.374c10.67,0,21.887,11.934,21.887,26.257c0,11.795-6.156,25.703-20.794,25.703c-9.184,0-14.099-8.471-14.099-13.505
		v-32.212C328.543,327.56,332.774,324.374,337.853,324.374"/>
	<path fill-rule="evenodd" clip-rule="evenodd" fill="#FFFFFF" d="M402.382,373.772c-5.339,0-9.713-4.368-9.713-9.542
		c0-9.938,17.795-12.99,24.763-15.642v17.496C412.918,369.93,408.824,373.772,402.382,373.772 M433.309,372.838
		c-3.011,0-4.924-2.11-4.924-7.551v-36.709c0-7.301-10.548-11.138-16.702-11.138c-5.188,0-7.521,1.846-12.305,4.245
		c-9.584,4.766-15.733,8.077-15.733,15.105c0,0.935,0.413,2.654,2.46,2.654c3.291,0,7.652-1.862,7.652-5.583
		c0.283-5.955,4.387-9.27,10.404-9.27c8.757,0,13.271,3.985,13.271,11.396v8.754c-29.552,9.819-35.158,11.794-35.71,22.406
		c0,7.027,6.02,12.85,14.776,12.85c8.481,0,14.656-4.116,21.07-9.807c0.269,4.767,2.878,9.807,8.491,9.807
		c5.485,0,9.719-3.702,13.556-7.161l-1.239-2.237C437.138,372.051,435.089,372.838,433.309,372.838"/>
	<path fill="#FFFFFF" d="M451.182,374.34h-2.478v3.458c4.936-0.137,9.862-0.257,14.79-0.257c4.924,0,9.707,0.257,14.493,0.257
		v-3.458h-2.453c-3.829,0-6.84,0-6.84-4.366v-39.241c4.507-2.902,11.482-6.358,15.861-6.358c7.81,0,12.604,3.726,12.604,11.267
		v34.333c0,4.366-2.75,4.366-6.571,4.366h-2.474v3.458c4.928-0.137,9.854-0.257,14.786-0.257c4.923,0,9.718,0.257,14.506,0.257
		v-3.458h-2.47c-3.838,0-6.84,0-6.84-4.366v-34.2c0-10.331-4.098-18.545-15.732-18.545c-9.166,0-15.877,4.5-23.671,9.937v-8.618
		c0-1.048-0.413-1.318-0.834-1.318c-6.56,2.775-12.176,4.5-18.054,6.355v2.515c6.436,2.531,7.935,3.849,7.935,8.752v35.123
		C457.741,374.34,454.998,374.34,451.182,374.34"/>
	<path fill="#FFFFFF" d="M559.396,369.974c-14.906,0-23.938-12.048-23.938-25.713c0-10.073,6.158-22.801,17.925-22.801
		c12.862,0,12.589,10.742,18.33,10.742c3.283,0,5.204-2.784,5.204-5.839c0-7.022-11.486-9.135-18.462-9.135
		c-19.714,0-33.951,15.898-33.951,35.119c0,14.05,12.999,27.431,27.231,27.431c10.821,0,19.978-6.22,26.693-13.773l-2.329-2.262
		C570.895,367.595,566.38,369.974,559.396,369.974"/>
	<path fill="#FFFFFF" d="M602.118,377.537c4.924,0,9.715,0.255,14.373,0.255v-3.452h-2.32c-3.842,0-6.856,0-6.856-4.366v-50.886
		c0-1.076-0.272-1.867-0.963-1.867c-0.681,0-1.503,0.133-2.457,0.659c-0.545,0.401-8.207,2.929-14.646,4.772v2.129
		c5.063,2.642,7.116,3.439,7.116,9.271v35.921c0,4.366-2.734,4.366-6.571,4.366h-2.59v3.452
		C592.264,377.661,597.187,377.537,602.118,377.537"/>
</g>
</svg>
